<svg width="18" height="24" viewBox="0 0 18 24" fill="none" xmlns="http://www.w3.org/2000/svg">
<path d="M8.84783 11.2002C3.9413 11.2002 0 15.1202 0 20.0002V21.6002C0 22.9602 1.04565 24.0002 2.41304 24.0002H15.2826C16.65 24.0002 17.6957 22.9602 17.6957 21.6002V20.0002C17.6957 15.1202 13.7543 11.2002 8.84783 11.2002ZM16.087 21.6002C16.087 22.0802 15.7652 22.4002 15.2826 22.4002H2.41304C1.93044 22.4002 1.6087 22.0802 1.6087 21.6002V20.0002C1.6087 16.0002 4.82609 12.8002 8.84783 12.8002C12.8696 12.8002 16.087 16.0002 16.087 20.0002V21.6002Z" fill="white"/>
<path d="M14.4796 5.6C14.4796 2.48 11.9861 0 8.84918 0C5.71223 0 3.21875 2.48 3.21875 5.6C3.21875 8.72 5.71223 11.2 8.84918 11.2C11.9861 11.2 14.4796 8.72 14.4796 5.6ZM8.84918 9.6C6.59701 9.6 4.82745 7.84 4.82745 5.6C4.82745 3.36 6.59701 1.6 8.84918 1.6C11.1014 1.6 12.8709 3.36 12.8709 5.6C12.8709 7.84 11.1014 9.6 8.84918 9.6Z" fill="white"/>
</svg>
