<svg width="720" height="598" viewBox="0 0 720 598" fill="none" xmlns="http://www.w3.org/2000/svg">
<path d="M848 133.925C847.434 144.956 847.249 155.399 844.929 166.234C842.729 176.503 845.887 185.607 843.731 195.843C841.367 207.037 841.738 217.274 840.855 228.631C839.897 240.915 834.441 251.695 830.694 263.26C827.568 272.919 827.209 282.829 823.822 292.422C819.966 303.323 817.44 314.419 812.582 324.993C802.443 347.077 790.974 367.974 778.613 388.86C756.461 426.309 732.871 464.564 701.221 495.066C684.198 511.465 662.405 523.727 642.072 535.488C633.087 540.693 624.319 546.486 615.214 551.441C604.944 557.027 593.759 560.523 583.521 566.338C564.93 576.89 550.14 586.984 528.478 589.772C518.97 590.992 510.41 594.803 500.956 595.947C489.085 597.384 476.386 598.647 464.438 597.634C442.722 595.805 420.417 590.828 399.201 585.939C387.635 583.271 376.45 582.269 364.611 581.845C351.945 581.387 340.934 578.011 328.703 575.202C307.182 570.269 285.357 562.232 265.274 553.053C224.443 534.388 178.058 515.756 146.594 482.532C132.076 467.199 115.979 453.076 100.426 438.712C93.1512 431.994 85.6036 425.068 80.7898 416.291C75.4314 406.501 73.0245 395.22 68.2106 385.125C48.378 343.516 26.6394 302.549 14.1365 257.935C7.95034 235.873 6.69787 213.146 2.57016 190.845C0.500853 179.661 -1.44865 174.695 1.51372 163.599C4.44342 152.622 5.11866 141.635 8.35331 130.625C11.5553 119.725 13.287 108.247 16.1949 97.1836C19.3642 85.1071 23.7642 74.0978 28.3166 62.5113C32.4552 51.9702 35.1127 40.95 39.1968 30.409C43.1394 20.2272 49.7829 11.4612 53.2898 1.12698C56.4374 -8.1618 57.4176 -17.8971 61.8829 -26.7503C66.9908 -36.8884 74.4294 -45.8832 80.474 -55.4769C86.2135 -64.5914 92.0838 -72.1487 99.86 -79.5319C108.257 -87.5139 113.899 -97.2056 120.455 -106.68C133.296 -125.235 146.506 -143.04 162.865 -158.688C179.713 -174.804 198.805 -184.278 218.921 -195.32C239.734 -206.744 259.545 -218.951 281.196 -228.969C302.042 -238.617 324.761 -245.347 346.88 -251.445C368.837 -257.5 390.172 -251.293 411.846 -248.222C433.344 -245.184 453.82 -239.826 475.504 -237.43C495.914 -235.176 517.293 -232.367 536.82 -225.19C557.938 -217.426 578.827 -208.235 600.326 -201.462C619.015 -195.571 637.323 -187.861 652.44 -175.861C666.794 -164.47 686.671 -163.316 701.123 -151.174C709.248 -144.346 714.617 -135.526 721.479 -127.577C728.634 -119.279 736.868 -113.562 743.468 -104.6C756.167 -87.3615 773.059 -73.804 783.721 -54.9651C795.527 -34.0898 806.244 -12.5067 814.292 10.0891C817.973 20.4124 822.929 29.8971 827.59 39.7849C832.154 49.4765 833.515 59.386 836.967 69.3935C844.58 91.5102 847.074 110.534 848 133.925Z" fill="#16235F"/>
</svg>
