<svg width="111" height="22" viewBox="0 0 111 22" fill="none" xmlns="http://www.w3.org/2000/svg">
<path d="M11.3685 21.6002C17.0193 21.6002 21.6002 17.0193 21.6002 11.3685C21.6002 5.71762 17.0193 1.13672 11.3685 1.13672V11.3685H1.13672C1.13672 17.0193 5.71762 21.6002 11.3685 21.6002Z" fill="white"/>
<path d="M10.2317 0.000201347C4.5809 0.00020128 6.73855e-08 4.5811 0 10.2319L10.2317 10.2319L10.2317 0.000201347Z" fill="white"/>
<path d="M34.3651 6.65484V6.40484H34.1151H32.9493H32.6993V6.65484V15.1309C31.4079 15.9845 30.0752 16.4056 28.6972 16.4056C27.7303 16.4056 27.0508 16.1597 26.6108 15.7115C26.1699 15.2625 25.9274 14.5678 25.9274 13.58V6.65484V6.40484H25.6774H24.5117H24.2617V6.65484V13.5486C24.2617 14.9512 24.616 16.0489 25.3683 16.794C26.1201 17.5386 27.2271 17.8889 28.6417 17.8889C30.1996 17.8889 31.6267 17.4841 32.9175 16.6754L33.0113 17.6625L33.0328 17.8889H33.2602H34.1151H34.3651V17.6389V6.65484ZM37.6344 4.62646H37.3844V4.87646V14.6784C37.3844 15.7013 37.6298 16.5148 38.1646 17.0719C38.7013 17.6309 39.488 17.8889 40.4766 17.8889H42.1641H42.4141V17.6389V16.6974V16.4474H42.1641H40.4544C39.9494 16.4474 39.609 16.2886 39.3859 16.0024C39.1537 15.7043 39.0169 15.2282 39.0169 14.532V7.84633H42.1641H42.4141V7.59633V6.65484V6.40484H42.1641H38.889L38.7043 4.84702L38.6781 4.62646H38.456H37.6344ZM53.1417 17.5694L53.3386 17.5265V17.3251V16.3836V16.078L53.0391 16.1385C52.0177 16.3448 51.0351 16.4474 50.091 16.4474C48.5573 16.4474 47.4528 16.0609 46.7298 15.3315C46.0063 14.6017 45.6226 13.4862 45.6226 11.9376C45.6226 10.5347 46.0029 9.52683 46.7215 8.86563C47.4441 8.20081 48.5519 7.84633 50.091 7.84633C51.0351 7.84633 52.0177 7.94896 53.0391 8.15521L53.3386 8.21568V7.91016V6.96867V6.76718L53.1417 6.72437C52.1601 6.51091 51.1059 6.40484 49.98 6.40484C47.9864 6.40484 46.4444 6.85173 45.3999 7.78951C44.3503 8.73189 43.8459 10.1308 43.8459 11.9376C43.8459 13.8786 44.3472 15.3798 45.393 16.3931C46.4373 17.405 47.9821 17.8889 49.98 17.8889C51.1059 17.8889 52.1601 17.7828 53.1417 17.5694ZM55.0146 12.1469L55.0146 12.1479C55.0222 14.0467 55.4884 15.5166 56.4567 16.5109C57.4263 17.5066 58.8582 17.983 60.7047 17.983C62.5583 17.983 63.994 17.5068 64.9638 16.5109C65.9325 15.5163 66.3947 14.0458 66.3947 12.1469C66.3947 10.2445 65.9325 8.77154 64.964 7.77513C63.9942 6.77741 62.5584 6.30023 60.7047 6.30023C58.851 6.30023 57.4152 6.77741 56.4454 7.77513C55.4769 8.77154 55.0146 10.2445 55.0146 12.1469ZM68.8923 17.6389V17.8889H69.1423H70.308H70.558V17.6389V9.17384C71.5523 8.31404 72.6835 7.88817 73.9606 7.88817C74.877 7.88817 75.5176 8.08957 75.9275 8.44865C76.3311 8.80219 76.5528 9.34575 76.5528 10.1279V17.6389V17.8889H76.8028H77.9685H78.2185V17.6389V9.16641C79.1103 8.31652 80.231 7.88817 81.5989 7.88817C82.4801 7.88817 83.0947 8.10169 83.49 8.48461C83.8837 8.86611 84.1022 9.45712 84.1022 10.3057V17.6389V17.8889H84.3522H85.518H85.768V17.6389V10.3057C85.768 9.04571 85.43 8.05596 84.7117 7.38488C83.9965 6.71679 82.9471 6.40484 81.61 6.40484C80.2459 6.40484 78.9106 6.87655 77.6074 7.79949C76.9497 6.84194 75.6993 6.40484 73.9717 6.40484C72.6616 6.40484 71.4386 6.79721 70.3072 7.57333L70.224 6.63281L70.2038 6.40484H69.975H69.1423H68.8923V6.65484V17.6389ZM98.5408 12.6375H98.7769L98.7904 12.4018C98.8054 12.1394 98.813 11.887 98.813 11.6447C98.813 9.94546 98.4058 8.62463 97.5472 7.72928C96.6867 6.83196 95.4142 6.40484 93.778 6.40484C91.9876 6.40484 90.5992 6.8626 89.6608 7.82161C88.7234 8.77962 88.2767 10.1953 88.2767 12.0213C88.2767 13.9368 88.7895 15.4182 89.8575 16.4171C90.9223 17.413 92.4963 17.8889 94.5329 17.8889C95.8793 17.8889 97.084 17.7118 98.1436 17.3526L98.3134 17.2951V17.1158V16.1744V15.8256L97.9831 15.9376C96.9852 16.2758 95.8363 16.4474 94.5329 16.4474C92.9512 16.4474 91.8117 16.0947 91.0688 15.4332C90.3763 14.8167 89.9911 13.8982 89.9467 12.6375H98.5408ZM101.089 17.1158V17.3074L101.274 17.3572C102.588 17.7112 103.883 17.8889 105.158 17.8889C106.79 17.8889 108.058 17.6257 108.924 17.0641C109.809 16.4903 110.248 15.6225 110.248 14.5006C110.248 13.4951 109.898 12.7065 109.174 12.18C108.464 11.6643 107.431 11.4261 106.112 11.4261H104.625C103.816 11.4261 103.256 11.2725 102.902 11.0057C102.561 10.749 102.377 10.3603 102.377 9.79314C102.377 9.14635 102.64 8.68001 103.176 8.36028C103.733 8.02836 104.601 7.84633 105.813 7.84633C107.028 7.84633 108.271 8.05071 109.544 8.46188L109.871 8.56747V8.22399V7.17789V6.98629L109.686 6.93648C108.371 6.58252 107.08 6.40484 105.813 6.40484C104.177 6.40484 102.906 6.66798 102.038 7.2295C101.151 7.80316 100.711 8.67093 100.711 9.79314C100.711 10.8247 101.036 11.638 101.721 12.1852C102.395 12.7239 103.377 12.9722 104.625 12.9722H106.112C107 12.9722 107.622 13.1187 108.016 13.3761C108.391 13.6213 108.582 13.9827 108.582 14.5006C108.582 15.1477 108.32 15.614 107.785 15.9336C107.231 16.2654 106.366 16.4474 105.158 16.4474C103.935 16.4474 102.688 16.243 101.415 15.8318L101.089 15.7263V16.0697V17.1158ZM60.7047 16.552C59.3248 16.552 58.3341 16.174 57.6838 15.4595C57.0296 14.7405 56.6804 13.6377 56.6804 12.105C56.6804 10.6013 57.0291 9.52001 57.6823 8.81495C58.3323 8.11349 59.3236 7.74172 60.7047 7.74172C62.0858 7.74172 63.0771 8.11349 63.7271 8.81495C64.3803 9.52001 64.729 10.6013 64.729 12.105C64.729 13.6377 64.3798 14.7405 63.7255 15.4595C63.0753 16.174 62.0845 16.552 60.7047 16.552ZM97.1831 11.1541H89.9607C90.06 10.0544 90.4108 9.25277 90.9846 8.715C91.6038 8.13474 92.5214 7.8254 93.778 7.8254C94.934 7.8254 95.7633 8.13224 96.3118 8.70543C96.8245 9.24125 97.1261 10.0454 97.1831 11.1541Z" fill="white" stroke="white" stroke-width="0.5"/>
</svg>
