<svg width="26" height="22" viewBox="0 0 26 22" fill="none" xmlns="http://www.w3.org/2000/svg">
<path d="M10.5795 21.5112C13.2899 21.5112 16 20.4624 18.0637 18.3647C18.3808 18.0426 18.3808 17.5203 18.0637 17.1983C17.7467 16.8763 17.2332 16.876 16.9165 17.1983C13.422 20.7501 7.73695 20.7504 4.24245 17.1983C0.748277 13.6456 0.748277 7.86545 4.24245 4.31304C7.73663 0.760625 13.4217 0.760295 16.9165 4.31304C17.2336 4.63538 17.747 4.63538 18.0637 4.31304C18.3808 3.99102 18.3808 3.46873 18.0637 3.14672C13.9367 -1.04907 7.22226 -1.04874 3.09525 3.14672C-1.03175 7.34217 -1.03175 14.1692 3.09525 18.365C5.15859 20.4624 7.86871 21.5112 10.5795 21.5112Z" fill="white"/>
<path d="M24.9749 10.5152C24.9746 10.5148 24.9742 10.5148 24.9742 10.5145L21.5203 7.00299C21.2033 6.68064 20.6899 6.68064 20.3731 7.00299C20.0561 7.32501 20.0561 7.84729 20.3731 8.16931L22.4436 10.2743H10.5808C10.1327 10.2743 9.76953 10.6435 9.76953 11.0991C9.76953 11.5548 10.1327 11.924 10.5808 11.924H22.4436L20.3731 14.029C20.0561 14.3513 20.0561 14.8733 20.3731 15.1953C20.5315 15.3563 20.7392 15.4368 20.9469 15.4368C21.1546 15.4368 21.3619 15.3563 21.5206 15.1953L24.9759 11.6825C25.2543 11.3994 25.2877 10.9619 25.0765 10.6415C25.0469 10.5963 25.0132 10.5538 24.9749 10.5152Z" fill="white"/>
</svg>
