<svg width="321" height="382" viewBox="0 0 321 382" fill="none" xmlns="http://www.w3.org/2000/svg">
<path d="M321 250.421C320.635 257.542 320.515 264.283 319.019 271.278C317.6 277.907 319.637 283.784 318.246 290.392C316.722 297.618 316.96 304.226 316.391 311.558C315.773 319.487 312.254 326.447 309.837 333.912C307.821 340.147 307.589 346.544 305.404 352.737C302.917 359.774 301.287 366.937 298.154 373.763C291.613 388.019 284.216 401.509 276.242 414.992C261.953 439.167 246.736 463.862 226.321 483.552C215.34 494.138 201.283 502.054 188.167 509.646C182.371 513.006 176.715 516.746 170.842 519.944C164.217 523.55 157.003 525.807 150.399 529.561C138.407 536.373 128.866 542.889 114.893 544.689C108.76 545.476 103.238 547.936 97.1404 548.674C89.4828 549.602 81.2914 550.418 73.5847 549.764C59.5764 548.583 45.1887 545.37 31.5034 542.214C24.0426 540.492 16.8277 539.845 9.19125 539.571C1.02089 539.276 -6.08163 537.097 -13.971 535.283C-27.8529 532.099 -41.9315 526.911 -54.886 520.985C-81.2237 508.936 -111.144 496.908 -131.44 475.461C-140.805 465.563 -151.188 456.446 -161.22 447.173C-165.913 442.836 -170.782 438.365 -173.887 432.699C-177.343 426.38 -178.896 419.097 -182.001 412.581C-194.794 385.72 -208.816 359.275 -216.881 330.474C-220.872 316.232 -221.68 301.562 -224.342 287.165C-225.677 279.945 -226.934 276.74 -225.024 269.577C-223.134 262.491 -222.698 255.398 -220.612 248.291C-218.546 241.254 -217.429 233.845 -215.554 226.703C-213.509 218.907 -210.671 211.8 -207.734 204.321C-205.065 197.516 -203.351 190.402 -200.716 183.597C-198.173 177.025 -193.888 171.366 -191.626 164.695C-189.595 158.698 -188.963 152.414 -186.083 146.699C-182.788 140.154 -177.99 134.348 -174.091 128.155C-170.388 122.271 -166.602 117.392 -161.586 112.626C-156.169 107.473 -152.53 101.217 -148.301 95.1013C-140.018 83.1228 -131.496 71.6293 -120.944 61.5277C-110.076 51.1239 -97.7612 45.0081 -84.7855 37.88C-71.3603 30.506 -58.5813 22.6257 -44.6151 16.1585C-31.1688 9.93021 -16.5141 5.58589 -2.24585 1.6493C11.9171 -2.25918 25.6795 1.74771 39.6598 3.73007C53.5276 5.69134 66.7351 9.14992 80.7224 10.6964C93.8877 12.1516 107.678 13.9652 120.275 18.5977C133.896 23.6099 147.371 29.5429 161.239 33.9153C173.294 37.7184 185.104 42.6953 194.855 50.442C204.114 57.795 216.935 58.5401 226.257 66.3782C231.498 70.7858 234.962 76.4798 239.388 81.6114C244.003 86.968 249.314 90.6585 253.572 96.4439C261.763 107.572 272.659 116.324 279.537 128.485C287.152 141.961 294.065 155.894 299.257 170.48C301.631 177.144 304.828 183.267 307.835 189.65C310.778 195.906 311.656 202.303 313.883 208.763C318.794 223.041 320.403 235.321 321 250.421Z" fill="#F2C94C"/>
</svg>
